<?xml version="1.0" encoding="UTF-8" standalone="no"?>
<svg
   xmlns:dc="http://purl.org/dc/elements/1.1/"
   xmlns:cc="http://creativecommons.org/ns#"
   xmlns:rdf="http://www.w3.org/1999/02/22-rdf-syntax-ns#"
   xmlns:svg="http://www.w3.org/2000/svg"
   xmlns="http://www.w3.org/2000/svg"
   viewBox="0 0 299.62805 297.83237"
   height="297.83237"
   width="299.62805"
   xml:space="preserve"
   version="1.1"
   id="svg2"><metadata
     id="metadata8"><rdf:RDF><cc:Work
         rdf:about=""><dc:format>image/svg+xml</dc:format><dc:type
           rdf:resource="http://purl.org/dc/dcmitype/StillImage" /><dc:title></dc:title></cc:Work></rdf:RDF></metadata><defs
     id="defs6"><clipPath
       id="clipPath18"
       clipPathUnits="userSpaceOnUse"><path
         id="path20"
         d="m 51,757 233,0 0,30 -233,0 0,-30 z" /></clipPath><clipPath
       id="clipPath32"
       clipPathUnits="userSpaceOnUse"><path
         id="path34"
         d="m 51,757 233,0 0,30 -233,0 0,-30 z" /></clipPath><clipPath
       id="clipPath46"
       clipPathUnits="userSpaceOnUse"><path
         id="path48"
         d="m 51,757 233,0 0,30 -233,0 0,-30 z" /></clipPath><clipPath
       id="clipPath60"
       clipPathUnits="userSpaceOnUse"><path
         id="path62"
         d="m 51,757 233,0 0,30 -233,0 0,-30 z" /></clipPath><clipPath
       id="clipPath74"
       clipPathUnits="userSpaceOnUse"><path
         id="path76"
         d="m 51,757 233,0 0,30 -233,0 0,-30 z" /></clipPath><clipPath
       id="clipPath88"
       clipPathUnits="userSpaceOnUse"><path
         id="path90"
         d="m 51,757 233,0 0,30 -233,0 0,-30 z" /></clipPath><clipPath
       id="clipPath102"
       clipPathUnits="userSpaceOnUse"><path
         id="path104"
         d="m 51,757 233,0 0,30 -233,0 0,-30 z" /></clipPath><clipPath
       id="clipPath116"
       clipPathUnits="userSpaceOnUse"><path
         id="path118"
         d="m 51,757 233,0 0,30 -233,0 0,-30 z" /></clipPath><clipPath
       id="clipPath130"
       clipPathUnits="userSpaceOnUse"><path
         id="path132"
         d="m 51,728 233,0 0,30 -233,0 0,-30 z" /></clipPath><clipPath
       id="clipPath144"
       clipPathUnits="userSpaceOnUse"><path
         id="path146"
         d="m 51,728 233,0 0,30 -233,0 0,-30 z" /></clipPath><clipPath
       id="clipPath158"
       clipPathUnits="userSpaceOnUse"><path
         id="path160"
         d="m 51,728 233,0 0,30 -233,0 0,-30 z" /></clipPath><clipPath
       id="clipPath172"
       clipPathUnits="userSpaceOnUse"><path
         id="path174"
         d="m 51,728 233,0 0,30 -233,0 0,-30 z" /></clipPath><clipPath
       id="clipPath186"
       clipPathUnits="userSpaceOnUse"><path
         id="path188"
         d="m 51,728 233,0 0,30 -233,0 0,-30 z" /></clipPath><clipPath
       id="clipPath200"
       clipPathUnits="userSpaceOnUse"><path
         id="path202"
         d="m 51,728 233,0 0,30 -233,0 0,-30 z" /></clipPath><clipPath
       id="clipPath214"
       clipPathUnits="userSpaceOnUse"><path
         id="path216"
         d="m 51,728 233,0 0,30 -233,0 0,-30 z" /></clipPath><clipPath
       id="clipPath228"
       clipPathUnits="userSpaceOnUse"><path
         id="path230"
         d="m 51,728 233,0 0,30 -233,0 0,-30 z" /></clipPath><clipPath
       id="clipPath242"
       clipPathUnits="userSpaceOnUse"><path
         id="path244"
         d="m 51,699 233,0 0,30 -233,0 0,-30 z" /></clipPath><clipPath
       id="clipPath256"
       clipPathUnits="userSpaceOnUse"><path
         id="path258"
         d="m 51,699 233,0 0,30 -233,0 0,-30 z" /></clipPath><clipPath
       id="clipPath270"
       clipPathUnits="userSpaceOnUse"><path
         id="path272"
         d="m 51,699 233,0 0,30 -233,0 0,-30 z" /></clipPath><clipPath
       id="clipPath284"
       clipPathUnits="userSpaceOnUse"><path
         id="path286"
         d="m 51,699 233,0 0,30 -233,0 0,-30 z" /></clipPath><clipPath
       id="clipPath298"
       clipPathUnits="userSpaceOnUse"><path
         id="path300"
         d="m 51,699 233,0 0,30 -233,0 0,-30 z" /></clipPath><clipPath
       id="clipPath312"
       clipPathUnits="userSpaceOnUse"><path
         id="path314"
         d="m 51,699 233,0 0,30 -233,0 0,-30 z" /></clipPath><clipPath
       id="clipPath326"
       clipPathUnits="userSpaceOnUse"><path
         id="path328"
         d="m 51,699 233,0 0,30 -233,0 0,-30 z" /></clipPath><clipPath
       id="clipPath340"
       clipPathUnits="userSpaceOnUse"><path
         id="path342"
         d="m 51,699 233,0 0,30 -233,0 0,-30 z" /></clipPath><clipPath
       id="clipPath354"
       clipPathUnits="userSpaceOnUse"><path
         id="path356"
         d="m 51,670 233,0 0,30 -233,0 0,-30 z" /></clipPath><clipPath
       id="clipPath368"
       clipPathUnits="userSpaceOnUse"><path
         id="path370"
         d="m 51,670 233,0 0,30 -233,0 0,-30 z" /></clipPath><clipPath
       id="clipPath382"
       clipPathUnits="userSpaceOnUse"><path
         id="path384"
         d="m 51,670 233,0 0,30 -233,0 0,-30 z" /></clipPath><clipPath
       id="clipPath396"
       clipPathUnits="userSpaceOnUse"><path
         id="path398"
         d="m 51,670 233,0 0,30 -233,0 0,-30 z" /></clipPath><clipPath
       id="clipPath410"
       clipPathUnits="userSpaceOnUse"><path
         id="path412"
         d="m 51,670 233,0 0,30 -233,0 0,-30 z" /></clipPath><clipPath
       id="clipPath424"
       clipPathUnits="userSpaceOnUse"><path
         id="path426"
         d="m 51,670 233,0 0,30 -233,0 0,-30 z" /></clipPath><clipPath
       id="clipPath438"
       clipPathUnits="userSpaceOnUse"><path
         id="path440"
         d="m 51,670 233,0 0,30 -233,0 0,-30 z" /></clipPath><clipPath
       id="clipPath452"
       clipPathUnits="userSpaceOnUse"><path
         id="path454"
         d="m 51,670 233,0 0,30 -233,0 0,-30 z" /></clipPath><clipPath
       id="clipPath466"
       clipPathUnits="userSpaceOnUse"><path
         id="path468"
         d="m 51,641 233,0 0,30 -233,0 0,-30 z" /></clipPath><clipPath
       id="clipPath480"
       clipPathUnits="userSpaceOnUse"><path
         id="path482"
         d="m 51,641 233,0 0,30 -233,0 0,-30 z" /></clipPath><clipPath
       id="clipPath494"
       clipPathUnits="userSpaceOnUse"><path
         id="path496"
         d="m 51,641 233,0 0,30 -233,0 0,-30 z" /></clipPath><clipPath
       id="clipPath508"
       clipPathUnits="userSpaceOnUse"><path
         id="path510"
         d="m 51,641 233,0 0,30 -233,0 0,-30 z" /></clipPath><clipPath
       id="clipPath522"
       clipPathUnits="userSpaceOnUse"><path
         id="path524"
         d="m 51,641 233,0 0,30 -233,0 0,-30 z" /></clipPath><clipPath
       id="clipPath536"
       clipPathUnits="userSpaceOnUse"><path
         id="path538"
         d="m 51,641 233,0 0,30 -233,0 0,-30 z" /></clipPath><clipPath
       id="clipPath550"
       clipPathUnits="userSpaceOnUse"><path
         id="path552"
         d="m 51,641 233,0 0,30 -233,0 0,-30 z" /></clipPath><clipPath
       id="clipPath564"
       clipPathUnits="userSpaceOnUse"><path
         id="path566"
         d="m 51,641 233,0 0,30 -233,0 0,-30 z" /></clipPath><clipPath
       id="clipPath578"
       clipPathUnits="userSpaceOnUse"><path
         id="path580"
         d="m 51,612 233,0 0,30 -233,0 0,-30 z" /></clipPath><clipPath
       id="clipPath592"
       clipPathUnits="userSpaceOnUse"><path
         id="path594"
         d="m 51,612 233,0 0,30 -233,0 0,-30 z" /></clipPath><clipPath
       id="clipPath606"
       clipPathUnits="userSpaceOnUse"><path
         id="path608"
         d="m 51,612 233,0 0,30 -233,0 0,-30 z" /></clipPath><clipPath
       id="clipPath620"
       clipPathUnits="userSpaceOnUse"><path
         id="path622"
         d="m 51,612 233,0 0,30 -233,0 0,-30 z" /></clipPath><clipPath
       id="clipPath634"
       clipPathUnits="userSpaceOnUse"><path
         id="path636"
         d="m 51,612 233,0 0,30 -233,0 0,-30 z" /></clipPath><clipPath
       id="clipPath648"
       clipPathUnits="userSpaceOnUse"><path
         id="path650"
         d="m 51,612 233,0 0,30 -233,0 0,-30 z" /></clipPath><clipPath
       id="clipPath662"
       clipPathUnits="userSpaceOnUse"><path
         id="path664"
         d="m 51,612 233,0 0,30 -233,0 0,-30 z" /></clipPath><clipPath
       id="clipPath676"
       clipPathUnits="userSpaceOnUse"><path
         id="path678"
         d="m 51,612 233,0 0,30 -233,0 0,-30 z" /></clipPath><clipPath
       id="clipPath690"
       clipPathUnits="userSpaceOnUse"><path
         id="path692"
         d="m 51,583 233,0 0,30 -233,0 0,-30 z" /></clipPath><clipPath
       id="clipPath704"
       clipPathUnits="userSpaceOnUse"><path
         id="path706"
         d="m 51,583 233,0 0,30 -233,0 0,-30 z" /></clipPath><clipPath
       id="clipPath718"
       clipPathUnits="userSpaceOnUse"><path
         id="path720"
         d="m 51,583 233,0 0,30 -233,0 0,-30 z" /></clipPath><clipPath
       id="clipPath732"
       clipPathUnits="userSpaceOnUse"><path
         id="path734"
         d="m 51,583 233,0 0,30 -233,0 0,-30 z" /></clipPath><clipPath
       id="clipPath746"
       clipPathUnits="userSpaceOnUse"><path
         id="path748"
         d="m 51,583 233,0 0,30 -233,0 0,-30 z" /></clipPath><clipPath
       id="clipPath760"
       clipPathUnits="userSpaceOnUse"><path
         id="path762"
         d="m 51,583 233,0 0,30 -233,0 0,-30 z" /></clipPath><clipPath
       id="clipPath774"
       clipPathUnits="userSpaceOnUse"><path
         id="path776"
         d="m 51,583 233,0 0,30 -233,0 0,-30 z" /></clipPath><clipPath
       id="clipPath788"
       clipPathUnits="userSpaceOnUse"><path
         id="path790"
         d="m 51,583 233,0 0,30 -233,0 0,-30 z" /></clipPath><clipPath
       id="clipPath802"
       clipPathUnits="userSpaceOnUse"><path
         id="path804"
         d="m 51,554 233,0 0,30 -233,0 0,-30 z" /></clipPath><clipPath
       id="clipPath816"
       clipPathUnits="userSpaceOnUse"><path
         id="path818"
         d="m 51,554 233,0 0,30 -233,0 0,-30 z" /></clipPath><clipPath
       id="clipPath830"
       clipPathUnits="userSpaceOnUse"><path
         id="path832"
         d="m 51,554 233,0 0,30 -233,0 0,-30 z" /></clipPath><clipPath
       id="clipPath844"
       clipPathUnits="userSpaceOnUse"><path
         id="path846"
         d="m 51,554 233,0 0,30 -233,0 0,-30 z" /></clipPath><clipPath
       id="clipPath858"
       clipPathUnits="userSpaceOnUse"><path
         id="path860"
         d="m 51,554 233,0 0,30 -233,0 0,-30 z" /></clipPath><clipPath
       id="clipPath872"
       clipPathUnits="userSpaceOnUse"><path
         id="path874"
         d="m 51,554 233,0 0,30 -233,0 0,-30 z" /></clipPath><clipPath
       id="clipPath886"
       clipPathUnits="userSpaceOnUse"><path
         id="path888"
         d="m 51,554 233,0 0,30 -233,0 0,-30 z" /></clipPath><clipPath
       id="clipPath900"
       clipPathUnits="userSpaceOnUse"><path
         id="path902"
         d="m 51,554 233,0 0,30 -233,0 0,-30 z" /></clipPath><clipPath
       id="clipPath914"
       clipPathUnits="userSpaceOnUse"><path
         id="path916"
         d="M 0,0 595,0 595,842 0,842 0,0 Z" /></clipPath></defs><g
     transform="matrix(1.25,0,0,-1.25,-57.845963,989.64813)"
     id="g10"><g
       id="g12" /><g
       id="g14"><g
         clip-path="url(#clipPath18)"
         id="g16"><g
           transform="translate(62,769)"
           id="g22"><text
             id="text24"
             style="font-variant:normal;font-weight:normal;font-size:12px;font-family:Calibri;-inkscape-font-specification:Calibri;writing-mode:lr-tb;fill:#000000;fill-opacity:1;fill-rule:nonzero;stroke:none"
             transform="scale(1,-1)"><tspan
               id="tspan26"
               y="0"
               x="0">0</tspan></text>
</g></g></g><g
       id="g28"><g
         clip-path="url(#clipPath32)"
         id="g30"><g
           transform="translate(91,769)"
           id="g36"><text
             id="text38"
             style="font-variant:normal;font-weight:normal;font-size:12px;font-family:Calibri;-inkscape-font-specification:Calibri;writing-mode:lr-tb;fill:#000000;fill-opacity:1;fill-rule:nonzero;stroke:none"
             transform="scale(1,-1)"><tspan
               id="tspan40"
               y="0"
               x="0">1</tspan></text>
</g></g></g><g
       id="g42"><g
         clip-path="url(#clipPath46)"
         id="g44"><g
           transform="translate(120,769)"
           id="g50"><text
             id="text52"
             style="font-variant:normal;font-weight:normal;font-size:12px;font-family:Calibri;-inkscape-font-specification:Calibri;writing-mode:lr-tb;fill:#000000;fill-opacity:1;fill-rule:nonzero;stroke:none"
             transform="scale(1,-1)"><tspan
               id="tspan54"
               y="0"
               x="0">2</tspan></text>
</g></g></g><g
       id="g56"><g
         clip-path="url(#clipPath60)"
         id="g58"><g
           transform="translate(149,769)"
           id="g64"><text
             id="text66"
             style="font-variant:normal;font-weight:normal;font-size:12px;font-family:Calibri;-inkscape-font-specification:Calibri;writing-mode:lr-tb;fill:#000000;fill-opacity:1;fill-rule:nonzero;stroke:none"
             transform="scale(1,-1)"><tspan
               id="tspan68"
               y="0"
               x="0">3</tspan></text>
</g></g></g><g
       id="g70"><g
         clip-path="url(#clipPath74)"
         id="g72"><g
           transform="translate(178,769)"
           id="g78"><text
             id="text80"
             style="font-variant:normal;font-weight:normal;font-size:12px;font-family:Calibri;-inkscape-font-specification:Calibri;writing-mode:lr-tb;fill:#000000;fill-opacity:1;fill-rule:nonzero;stroke:none"
             transform="scale(1,-1)"><tspan
               id="tspan82"
               y="0"
               x="0">4</tspan></text>
</g></g></g><g
       id="g84"><g
         clip-path="url(#clipPath88)"
         id="g86"><g
           transform="translate(207,769)"
           id="g92"><text
             id="text94"
             style="font-variant:normal;font-weight:normal;font-size:12px;font-family:Calibri;-inkscape-font-specification:Calibri;writing-mode:lr-tb;fill:#000000;fill-opacity:1;fill-rule:nonzero;stroke:none"
             transform="scale(1,-1)"><tspan
               id="tspan96"
               y="0"
               x="0">5</tspan></text>
</g></g></g><g
       id="g98"><g
         clip-path="url(#clipPath102)"
         id="g100"><g
           transform="translate(236,769)"
           id="g106"><text
             id="text108"
             style="font-variant:normal;font-weight:normal;font-size:12px;font-family:Calibri;-inkscape-font-specification:Calibri;writing-mode:lr-tb;fill:#000000;fill-opacity:1;fill-rule:nonzero;stroke:none"
             transform="scale(1,-1)"><tspan
               id="tspan110"
               y="0"
               x="0">6</tspan></text>
</g></g></g><g
       id="g112"><g
         clip-path="url(#clipPath116)"
         id="g114"><g
           transform="translate(265,769)"
           id="g120"><text
             id="text122"
             style="font-variant:normal;font-weight:normal;font-size:12px;font-family:Calibri;-inkscape-font-specification:Calibri;writing-mode:lr-tb;fill:#000000;fill-opacity:1;fill-rule:nonzero;stroke:none"
             transform="scale(1,-1)"><tspan
               id="tspan124"
               y="0"
               x="0">7</tspan></text>
</g></g></g><g
       id="g126"><g
         clip-path="url(#clipPath130)"
         id="g128"><g
           transform="translate(62,740)"
           id="g134"><text
             id="text136"
             style="font-variant:normal;font-weight:normal;font-size:12px;font-family:Calibri;-inkscape-font-specification:Calibri;writing-mode:lr-tb;fill:#000000;fill-opacity:1;fill-rule:nonzero;stroke:none"
             transform="scale(1,-1)"><tspan
               id="tspan138"
               y="0"
               x="0">8</tspan></text>
</g></g></g><g
       id="g140"><g
         clip-path="url(#clipPath144)"
         id="g142"><g
           transform="translate(91,740)"
           id="g148"><text
             id="text150"
             style="font-variant:normal;font-weight:normal;font-size:12px;font-family:Calibri;-inkscape-font-specification:Calibri;writing-mode:lr-tb;fill:#000000;fill-opacity:1;fill-rule:nonzero;stroke:none"
             transform="scale(1,-1)"><tspan
               id="tspan152"
               y="0"
               x="0">9</tspan></text>
</g></g></g><g
       id="g154"><g
         clip-path="url(#clipPath158)"
         id="g156"><g
           transform="translate(117,740)"
           id="g162"><text
             id="text164"
             style="font-variant:normal;font-weight:normal;font-size:12px;font-family:Calibri;-inkscape-font-specification:Calibri;writing-mode:lr-tb;fill:#000000;fill-opacity:1;fill-rule:nonzero;stroke:none"
             transform="scale(1,-1)"><tspan
               id="tspan166"
               y="0"
               x="0 6.0816002">10</tspan></text>
</g></g></g><g
       id="g168"><g
         clip-path="url(#clipPath172)"
         id="g170"><g
           transform="translate(146,740)"
           id="g176"><text
             id="text178"
             style="font-variant:normal;font-weight:normal;font-size:12px;font-family:Calibri;-inkscape-font-specification:Calibri;writing-mode:lr-tb;fill:#000000;fill-opacity:1;fill-rule:nonzero;stroke:none"
             transform="scale(1,-1)"><tspan
               id="tspan180"
               y="0"
               x="0 6.0816002">11</tspan></text>
</g></g></g><g
       id="g182"><g
         clip-path="url(#clipPath186)"
         id="g184"><g
           transform="translate(175,740)"
           id="g190"><text
             id="text192"
             style="font-variant:normal;font-weight:normal;font-size:12px;font-family:Calibri;-inkscape-font-specification:Calibri;writing-mode:lr-tb;fill:#000000;fill-opacity:1;fill-rule:nonzero;stroke:none"
             transform="scale(1,-1)"><tspan
               id="tspan194"
               y="0"
               x="0 6.0816002">12</tspan></text>
</g></g></g><g
       id="g196"><g
         clip-path="url(#clipPath200)"
         id="g198"><g
           transform="translate(204,740)"
           id="g204"><text
             id="text206"
             style="font-variant:normal;font-weight:normal;font-size:12px;font-family:Calibri;-inkscape-font-specification:Calibri;writing-mode:lr-tb;fill:#000000;fill-opacity:1;fill-rule:nonzero;stroke:none"
             transform="scale(1,-1)"><tspan
               id="tspan208"
               y="0"
               x="0 6.0816002">13</tspan></text>
</g></g></g><g
       id="g210"><g
         clip-path="url(#clipPath214)"
         id="g212"><g
           transform="translate(233,740)"
           id="g218"><text
             id="text220"
             style="font-variant:normal;font-weight:normal;font-size:12px;font-family:Calibri;-inkscape-font-specification:Calibri;writing-mode:lr-tb;fill:#000000;fill-opacity:1;fill-rule:nonzero;stroke:none"
             transform="scale(1,-1)"><tspan
               id="tspan222"
               y="0"
               x="0 6.0816002">14</tspan></text>
</g></g></g><g
       id="g224"><g
         clip-path="url(#clipPath228)"
         id="g226"><g
           transform="translate(262,740)"
           id="g232"><text
             id="text234"
             style="font-variant:normal;font-weight:normal;font-size:12px;font-family:Calibri;-inkscape-font-specification:Calibri;writing-mode:lr-tb;fill:#000000;fill-opacity:1;fill-rule:nonzero;stroke:none"
             transform="scale(1,-1)"><tspan
               id="tspan236"
               y="0"
               x="0 6.0816002">15</tspan></text>
</g></g></g><g
       id="g238"><g
         clip-path="url(#clipPath242)"
         id="g240"><g
           transform="translate(59,711)"
           id="g246"><text
             id="text248"
             style="font-variant:normal;font-weight:normal;font-size:12px;font-family:Calibri;-inkscape-font-specification:Calibri;writing-mode:lr-tb;fill:#000000;fill-opacity:1;fill-rule:nonzero;stroke:none"
             transform="scale(1,-1)"><tspan
               id="tspan250"
               y="0"
               x="0 6.0816002">16</tspan></text>
</g></g></g><g
       id="g252"><g
         clip-path="url(#clipPath256)"
         id="g254"><g
           transform="translate(88,711)"
           id="g260"><text
             id="text262"
             style="font-variant:normal;font-weight:normal;font-size:12px;font-family:Calibri;-inkscape-font-specification:Calibri;writing-mode:lr-tb;fill:#000000;fill-opacity:1;fill-rule:nonzero;stroke:none"
             transform="scale(1,-1)"><tspan
               id="tspan264"
               y="0"
               x="0 6.0816002">17</tspan></text>
</g></g></g><g
       id="g266"><g
         clip-path="url(#clipPath270)"
         id="g268"><g
           transform="translate(117,711)"
           id="g274"><text
             id="text276"
             style="font-variant:normal;font-weight:normal;font-size:12px;font-family:Calibri;-inkscape-font-specification:Calibri;writing-mode:lr-tb;fill:#000000;fill-opacity:1;fill-rule:nonzero;stroke:none"
             transform="scale(1,-1)"><tspan
               id="tspan278"
               y="0"
               x="0 6.0816002">18</tspan></text>
</g></g></g><g
       id="g280"><g
         clip-path="url(#clipPath284)"
         id="g282"><g
           transform="translate(146,711)"
           id="g288"><text
             id="text290"
             style="font-variant:normal;font-weight:normal;font-size:12px;font-family:Calibri;-inkscape-font-specification:Calibri;writing-mode:lr-tb;fill:#000000;fill-opacity:1;fill-rule:nonzero;stroke:none"
             transform="scale(1,-1)"><tspan
               id="tspan292"
               y="0"
               x="0 6.0816002">19</tspan></text>
</g></g></g><g
       id="g294"><g
         clip-path="url(#clipPath298)"
         id="g296"><g
           transform="translate(175,711)"
           id="g302"><text
             id="text304"
             style="font-variant:normal;font-weight:normal;font-size:12px;font-family:Calibri;-inkscape-font-specification:Calibri;writing-mode:lr-tb;fill:#000000;fill-opacity:1;fill-rule:nonzero;stroke:none"
             transform="scale(1,-1)"><tspan
               id="tspan306"
               y="0"
               x="0 6.0816002">20</tspan></text>
</g></g></g><g
       id="g308"><g
         clip-path="url(#clipPath312)"
         id="g310"><g
           transform="translate(204,711)"
           id="g316"><text
             id="text318"
             style="font-variant:normal;font-weight:normal;font-size:12px;font-family:Calibri;-inkscape-font-specification:Calibri;writing-mode:lr-tb;fill:#000000;fill-opacity:1;fill-rule:nonzero;stroke:none"
             transform="scale(1,-1)"><tspan
               id="tspan320"
               y="0"
               x="0 6.0816002">21</tspan></text>
</g></g></g><g
       id="g322"><g
         clip-path="url(#clipPath326)"
         id="g324"><g
           transform="translate(233,711)"
           id="g330"><text
             id="text332"
             style="font-variant:normal;font-weight:normal;font-size:12px;font-family:Calibri;-inkscape-font-specification:Calibri;writing-mode:lr-tb;fill:#000000;fill-opacity:1;fill-rule:nonzero;stroke:none"
             transform="scale(1,-1)"><tspan
               id="tspan334"
               y="0"
               x="0 6.0816002">22</tspan></text>
</g></g></g><g
       id="g336"><g
         clip-path="url(#clipPath340)"
         id="g338"><g
           transform="translate(262,711)"
           id="g344"><text
             id="text346"
             style="font-variant:normal;font-weight:normal;font-size:12px;font-family:Calibri;-inkscape-font-specification:Calibri;writing-mode:lr-tb;fill:#000000;fill-opacity:1;fill-rule:nonzero;stroke:none"
             transform="scale(1,-1)"><tspan
               id="tspan348"
               y="0"
               x="0 6.0816002">23</tspan></text>
</g></g></g><g
       id="g350"><g
         clip-path="url(#clipPath354)"
         id="g352"><g
           transform="translate(59,682)"
           id="g358"><text
             id="text360"
             style="font-variant:normal;font-weight:normal;font-size:12px;font-family:Calibri;-inkscape-font-specification:Calibri;writing-mode:lr-tb;fill:#000000;fill-opacity:1;fill-rule:nonzero;stroke:none"
             transform="scale(1,-1)"><tspan
               id="tspan362"
               y="0"
               x="0 6.0816002">24</tspan></text>
</g></g></g><g
       id="g364"><g
         clip-path="url(#clipPath368)"
         id="g366"><g
           transform="translate(88,682)"
           id="g372"><text
             id="text374"
             style="font-variant:normal;font-weight:normal;font-size:12px;font-family:Calibri;-inkscape-font-specification:Calibri;writing-mode:lr-tb;fill:#000000;fill-opacity:1;fill-rule:nonzero;stroke:none"
             transform="scale(1,-1)"><tspan
               id="tspan376"
               y="0"
               x="0 6.0816002">25</tspan></text>
</g></g></g><g
       id="g378"><g
         clip-path="url(#clipPath382)"
         id="g380"><g
           transform="translate(117,682)"
           id="g386"><text
             id="text388"
             style="font-variant:normal;font-weight:normal;font-size:12px;font-family:Calibri;-inkscape-font-specification:Calibri;writing-mode:lr-tb;fill:#000000;fill-opacity:1;fill-rule:nonzero;stroke:none"
             transform="scale(1,-1)"><tspan
               id="tspan390"
               y="0"
               x="0 6.0816002">26</tspan></text>
</g></g></g><g
       id="g392"><g
         clip-path="url(#clipPath396)"
         id="g394"><g
           transform="translate(146,682)"
           id="g400"><text
             id="text402"
             style="font-variant:normal;font-weight:normal;font-size:12px;font-family:Calibri;-inkscape-font-specification:Calibri;writing-mode:lr-tb;fill:#000000;fill-opacity:1;fill-rule:nonzero;stroke:none"
             transform="scale(1,-1)"><tspan
               id="tspan404"
               y="0"
               x="0 6.0816002">27</tspan></text>
</g></g></g><g
       id="g406"><g
         clip-path="url(#clipPath410)"
         id="g408"><g
           transform="translate(175,682)"
           id="g414"><text
             id="text416"
             style="font-variant:normal;font-weight:normal;font-size:12px;font-family:Calibri;-inkscape-font-specification:Calibri;writing-mode:lr-tb;fill:#000000;fill-opacity:1;fill-rule:nonzero;stroke:none"
             transform="scale(1,-1)"><tspan
               id="tspan418"
               y="0"
               x="0 6.0816002">28</tspan></text>
</g></g></g><g
       id="g420"><g
         clip-path="url(#clipPath424)"
         id="g422"><g
           transform="translate(204,682)"
           id="g428"><text
             id="text430"
             style="font-variant:normal;font-weight:normal;font-size:12px;font-family:Calibri;-inkscape-font-specification:Calibri;writing-mode:lr-tb;fill:#000000;fill-opacity:1;fill-rule:nonzero;stroke:none"
             transform="scale(1,-1)"><tspan
               id="tspan432"
               y="0"
               x="0 6.0816002">29</tspan></text>
</g></g></g><g
       id="g434"><g
         clip-path="url(#clipPath438)"
         id="g436"><g
           transform="translate(233,682)"
           id="g442"><text
             id="text444"
             style="font-variant:normal;font-weight:normal;font-size:12px;font-family:Calibri;-inkscape-font-specification:Calibri;writing-mode:lr-tb;fill:#000000;fill-opacity:1;fill-rule:nonzero;stroke:none"
             transform="scale(1,-1)"><tspan
               id="tspan446"
               y="0"
               x="0 6.0816002">30</tspan></text>
</g></g></g><g
       id="g448"><g
         clip-path="url(#clipPath452)"
         id="g450"><g
           transform="translate(262,682)"
           id="g456"><text
             id="text458"
             style="font-variant:normal;font-weight:normal;font-size:12px;font-family:Calibri;-inkscape-font-specification:Calibri;writing-mode:lr-tb;fill:#000000;fill-opacity:1;fill-rule:nonzero;stroke:none"
             transform="scale(1,-1)"><tspan
               id="tspan460"
               y="0"
               x="0 6.0816002">31</tspan></text>
</g></g></g><g
       id="g462"><g
         clip-path="url(#clipPath466)"
         id="g464"><g
           transform="translate(59,653)"
           id="g470"><text
             id="text472"
             style="font-variant:normal;font-weight:normal;font-size:12px;font-family:Calibri;-inkscape-font-specification:Calibri;writing-mode:lr-tb;fill:#000000;fill-opacity:1;fill-rule:nonzero;stroke:none"
             transform="scale(1,-1)"><tspan
               id="tspan474"
               y="0"
               x="0 6.0816002">32</tspan></text>
</g></g></g><g
       id="g476"><g
         clip-path="url(#clipPath480)"
         id="g478"><g
           transform="translate(88,653)"
           id="g484"><text
             id="text486"
             style="font-variant:normal;font-weight:normal;font-size:12px;font-family:Calibri;-inkscape-font-specification:Calibri;writing-mode:lr-tb;fill:#000000;fill-opacity:1;fill-rule:nonzero;stroke:none"
             transform="scale(1,-1)"><tspan
               id="tspan488"
               y="0"
               x="0 6.0816002">33</tspan></text>
</g></g></g><g
       id="g490"><g
         clip-path="url(#clipPath494)"
         id="g492"><g
           transform="translate(117,653)"
           id="g498"><text
             id="text500"
             style="font-variant:normal;font-weight:normal;font-size:12px;font-family:Calibri;-inkscape-font-specification:Calibri;writing-mode:lr-tb;fill:#000000;fill-opacity:1;fill-rule:nonzero;stroke:none"
             transform="scale(1,-1)"><tspan
               id="tspan502"
               y="0"
               x="0 6.0816002">34</tspan></text>
</g></g></g><g
       id="g504"><g
         clip-path="url(#clipPath508)"
         id="g506"><g
           transform="translate(146,653)"
           id="g512"><text
             id="text514"
             style="font-variant:normal;font-weight:normal;font-size:12px;font-family:Calibri;-inkscape-font-specification:Calibri;writing-mode:lr-tb;fill:#000000;fill-opacity:1;fill-rule:nonzero;stroke:none"
             transform="scale(1,-1)"><tspan
               id="tspan516"
               y="0"
               x="0 6.0816002">35</tspan></text>
</g></g></g><g
       id="g518"><g
         clip-path="url(#clipPath522)"
         id="g520"><g
           transform="translate(175,653)"
           id="g526"><text
             id="text528"
             style="font-variant:normal;font-weight:normal;font-size:12px;font-family:Calibri;-inkscape-font-specification:Calibri;writing-mode:lr-tb;fill:#000000;fill-opacity:1;fill-rule:nonzero;stroke:none"
             transform="scale(1,-1)"><tspan
               id="tspan530"
               y="0"
               x="0 6.0816002">36</tspan></text>
</g></g></g><g
       id="g532"><g
         clip-path="url(#clipPath536)"
         id="g534"><g
           transform="translate(204,653)"
           id="g540"><text
             id="text542"
             style="font-variant:normal;font-weight:normal;font-size:12px;font-family:Calibri;-inkscape-font-specification:Calibri;writing-mode:lr-tb;fill:#000000;fill-opacity:1;fill-rule:nonzero;stroke:none"
             transform="scale(1,-1)"><tspan
               id="tspan544"
               y="0"
               x="0 6.0816002">37</tspan></text>
</g></g></g><g
       id="g546"><g
         clip-path="url(#clipPath550)"
         id="g548"><g
           transform="translate(233,653)"
           id="g554"><text
             id="text556"
             style="font-variant:normal;font-weight:normal;font-size:12px;font-family:Calibri;-inkscape-font-specification:Calibri;writing-mode:lr-tb;fill:#000000;fill-opacity:1;fill-rule:nonzero;stroke:none"
             transform="scale(1,-1)"><tspan
               id="tspan558"
               y="0"
               x="0 6.0816002">38</tspan></text>
</g></g></g><g
       id="g560"><g
         clip-path="url(#clipPath564)"
         id="g562"><g
           transform="translate(262,653)"
           id="g568"><text
             id="text570"
             style="font-variant:normal;font-weight:normal;font-size:12px;font-family:Calibri;-inkscape-font-specification:Calibri;writing-mode:lr-tb;fill:#000000;fill-opacity:1;fill-rule:nonzero;stroke:none"
             transform="scale(1,-1)"><tspan
               id="tspan572"
               y="0"
               x="0 6.0816002">39</tspan></text>
</g></g></g><g
       id="g574"><g
         clip-path="url(#clipPath578)"
         id="g576"><g
           transform="translate(59,624)"
           id="g582"><text
             id="text584"
             style="font-variant:normal;font-weight:normal;font-size:12px;font-family:Calibri;-inkscape-font-specification:Calibri;writing-mode:lr-tb;fill:#000000;fill-opacity:1;fill-rule:nonzero;stroke:none"
             transform="scale(1,-1)"><tspan
               id="tspan586"
               y="0"
               x="0 6.0816002">40</tspan></text>
</g></g></g><g
       id="g588"><g
         clip-path="url(#clipPath592)"
         id="g590"><g
           transform="translate(88,624)"
           id="g596"><text
             id="text598"
             style="font-variant:normal;font-weight:normal;font-size:12px;font-family:Calibri;-inkscape-font-specification:Calibri;writing-mode:lr-tb;fill:#000000;fill-opacity:1;fill-rule:nonzero;stroke:none"
             transform="scale(1,-1)"><tspan
               id="tspan600"
               y="0"
               x="0 6.0816002">41</tspan></text>
</g></g></g><g
       id="g602"><g
         clip-path="url(#clipPath606)"
         id="g604"><g
           transform="translate(117,624)"
           id="g610"><text
             id="text612"
             style="font-variant:normal;font-weight:normal;font-size:12px;font-family:Calibri;-inkscape-font-specification:Calibri;writing-mode:lr-tb;fill:#000000;fill-opacity:1;fill-rule:nonzero;stroke:none"
             transform="scale(1,-1)"><tspan
               id="tspan614"
               y="0"
               x="0 6.0816002">42</tspan></text>
</g></g></g><g
       id="g616"><g
         clip-path="url(#clipPath620)"
         id="g618"><g
           transform="translate(146,624)"
           id="g624"><text
             id="text626"
             style="font-variant:normal;font-weight:normal;font-size:12px;font-family:Calibri;-inkscape-font-specification:Calibri;writing-mode:lr-tb;fill:#000000;fill-opacity:1;fill-rule:nonzero;stroke:none"
             transform="scale(1,-1)"><tspan
               id="tspan628"
               y="0"
               x="0 6.0816002">43</tspan></text>
</g></g></g><g
       id="g630"><g
         clip-path="url(#clipPath634)"
         id="g632"><g
           transform="translate(175,624)"
           id="g638"><text
             id="text640"
             style="font-variant:normal;font-weight:normal;font-size:12px;font-family:Calibri;-inkscape-font-specification:Calibri;writing-mode:lr-tb;fill:#000000;fill-opacity:1;fill-rule:nonzero;stroke:none"
             transform="scale(1,-1)"><tspan
               id="tspan642"
               y="0"
               x="0 6.0816002">44</tspan></text>
</g></g></g><g
       id="g644"><g
         clip-path="url(#clipPath648)"
         id="g646"><g
           transform="translate(204,624)"
           id="g652"><text
             id="text654"
             style="font-variant:normal;font-weight:normal;font-size:12px;font-family:Calibri;-inkscape-font-specification:Calibri;writing-mode:lr-tb;fill:#000000;fill-opacity:1;fill-rule:nonzero;stroke:none"
             transform="scale(1,-1)"><tspan
               id="tspan656"
               y="0"
               x="0 6.0816002">45</tspan></text>
</g></g></g><g
       id="g658"><g
         clip-path="url(#clipPath662)"
         id="g660"><g
           transform="translate(233,624)"
           id="g666"><text
             id="text668"
             style="font-variant:normal;font-weight:normal;font-size:12px;font-family:Calibri;-inkscape-font-specification:Calibri;writing-mode:lr-tb;fill:#000000;fill-opacity:1;fill-rule:nonzero;stroke:none"
             transform="scale(1,-1)"><tspan
               id="tspan670"
               y="0"
               x="0 6.0816002">46</tspan></text>
</g></g></g><g
       id="g672"><g
         clip-path="url(#clipPath676)"
         id="g674"><g
           transform="translate(262,624)"
           id="g680"><text
             id="text682"
             style="font-variant:normal;font-weight:normal;font-size:12px;font-family:Calibri;-inkscape-font-specification:Calibri;writing-mode:lr-tb;fill:#000000;fill-opacity:1;fill-rule:nonzero;stroke:none"
             transform="scale(1,-1)"><tspan
               id="tspan684"
               y="0"
               x="0 6.0816002">47</tspan></text>
</g></g></g><g
       id="g686"><g
         clip-path="url(#clipPath690)"
         id="g688"><g
           transform="translate(59,595)"
           id="g694"><text
             id="text696"
             style="font-variant:normal;font-weight:normal;font-size:12px;font-family:Calibri;-inkscape-font-specification:Calibri;writing-mode:lr-tb;fill:#000000;fill-opacity:1;fill-rule:nonzero;stroke:none"
             transform="scale(1,-1)"><tspan
               id="tspan698"
               y="0"
               x="0 6.0816002">48</tspan></text>
</g></g></g><g
       id="g700"><g
         clip-path="url(#clipPath704)"
         id="g702"><g
           transform="translate(88,595)"
           id="g708"><text
             id="text710"
             style="font-variant:normal;font-weight:normal;font-size:12px;font-family:Calibri;-inkscape-font-specification:Calibri;writing-mode:lr-tb;fill:#000000;fill-opacity:1;fill-rule:nonzero;stroke:none"
             transform="scale(1,-1)"><tspan
               id="tspan712"
               y="0"
               x="0 6.0816002">49</tspan></text>
</g></g></g><g
       id="g714"><g
         clip-path="url(#clipPath718)"
         id="g716"><g
           transform="translate(117,595)"
           id="g722"><text
             id="text724"
             style="font-variant:normal;font-weight:normal;font-size:12px;font-family:Calibri;-inkscape-font-specification:Calibri;writing-mode:lr-tb;fill:#000000;fill-opacity:1;fill-rule:nonzero;stroke:none"
             transform="scale(1,-1)"><tspan
               id="tspan726"
               y="0"
               x="0 6.0816002">50</tspan></text>
</g></g></g><g
       id="g728"><g
         clip-path="url(#clipPath732)"
         id="g730"><g
           transform="translate(146,595)"
           id="g736"><text
             id="text738"
             style="font-variant:normal;font-weight:normal;font-size:12px;font-family:Calibri;-inkscape-font-specification:Calibri;writing-mode:lr-tb;fill:#000000;fill-opacity:1;fill-rule:nonzero;stroke:none"
             transform="scale(1,-1)"><tspan
               id="tspan740"
               y="0"
               x="0 6.0816002">51</tspan></text>
</g></g></g><g
       id="g742"><g
         clip-path="url(#clipPath746)"
         id="g744"><g
           transform="translate(175,595)"
           id="g750"><text
             id="text752"
             style="font-variant:normal;font-weight:normal;font-size:12px;font-family:Calibri;-inkscape-font-specification:Calibri;writing-mode:lr-tb;fill:#000000;fill-opacity:1;fill-rule:nonzero;stroke:none"
             transform="scale(1,-1)"><tspan
               id="tspan754"
               y="0"
               x="0 6.0816002">52</tspan></text>
</g></g></g><g
       id="g756"><g
         clip-path="url(#clipPath760)"
         id="g758"><g
           transform="translate(204,595)"
           id="g764"><text
             id="text766"
             style="font-variant:normal;font-weight:normal;font-size:12px;font-family:Calibri;-inkscape-font-specification:Calibri;writing-mode:lr-tb;fill:#000000;fill-opacity:1;fill-rule:nonzero;stroke:none"
             transform="scale(1,-1)"><tspan
               id="tspan768"
               y="0"
               x="0 6.0816002">53</tspan></text>
</g></g></g><g
       id="g770"><g
         clip-path="url(#clipPath774)"
         id="g772"><g
           transform="translate(233,595)"
           id="g778"><text
             id="text780"
             style="font-variant:normal;font-weight:normal;font-size:12px;font-family:Calibri;-inkscape-font-specification:Calibri;writing-mode:lr-tb;fill:#000000;fill-opacity:1;fill-rule:nonzero;stroke:none"
             transform="scale(1,-1)"><tspan
               id="tspan782"
               y="0"
               x="0 6.0816002">54</tspan></text>
</g></g></g><g
       id="g784"><g
         clip-path="url(#clipPath788)"
         id="g786"><g
           transform="translate(262,595)"
           id="g792"><text
             id="text794"
             style="font-variant:normal;font-weight:normal;font-size:12px;font-family:Calibri;-inkscape-font-specification:Calibri;writing-mode:lr-tb;fill:#000000;fill-opacity:1;fill-rule:nonzero;stroke:none"
             transform="scale(1,-1)"><tspan
               id="tspan796"
               y="0"
               x="0 6.0816002">55</tspan></text>
</g></g></g><g
       id="g798"><g
         clip-path="url(#clipPath802)"
         id="g800"><g
           transform="translate(59,566)"
           id="g806"><text
             id="text808"
             style="font-variant:normal;font-weight:normal;font-size:12px;font-family:Calibri;-inkscape-font-specification:Calibri;writing-mode:lr-tb;fill:#000000;fill-opacity:1;fill-rule:nonzero;stroke:none"
             transform="scale(1,-1)"><tspan
               id="tspan810"
               y="0"
               x="0 6.0816002">56</tspan></text>
</g></g></g><g
       id="g812"><g
         clip-path="url(#clipPath816)"
         id="g814"><g
           transform="translate(88,566)"
           id="g820"><text
             id="text822"
             style="font-variant:normal;font-weight:normal;font-size:12px;font-family:Calibri;-inkscape-font-specification:Calibri;writing-mode:lr-tb;fill:#000000;fill-opacity:1;fill-rule:nonzero;stroke:none"
             transform="scale(1,-1)"><tspan
               id="tspan824"
               y="0"
               x="0 6.0816002">57</tspan></text>
</g></g></g><g
       id="g826"><g
         clip-path="url(#clipPath830)"
         id="g828"><g
           transform="translate(117,566)"
           id="g834"><text
             id="text836"
             style="font-variant:normal;font-weight:normal;font-size:12px;font-family:Calibri;-inkscape-font-specification:Calibri;writing-mode:lr-tb;fill:#000000;fill-opacity:1;fill-rule:nonzero;stroke:none"
             transform="scale(1,-1)"><tspan
               id="tspan838"
               y="0"
               x="0 6.0816002">58</tspan></text>
</g></g></g><g
       id="g840"><g
         clip-path="url(#clipPath844)"
         id="g842"><g
           transform="translate(146,566)"
           id="g848"><text
             id="text850"
             style="font-variant:normal;font-weight:normal;font-size:12px;font-family:Calibri;-inkscape-font-specification:Calibri;writing-mode:lr-tb;fill:#000000;fill-opacity:1;fill-rule:nonzero;stroke:none"
             transform="scale(1,-1)"><tspan
               id="tspan852"
               y="0"
               x="0 6.0816002">59</tspan></text>
</g></g></g><g
       id="g854"><g
         clip-path="url(#clipPath858)"
         id="g856"><g
           transform="translate(175,566)"
           id="g862"><text
             id="text864"
             style="font-variant:normal;font-weight:normal;font-size:12px;font-family:Calibri;-inkscape-font-specification:Calibri;writing-mode:lr-tb;fill:#000000;fill-opacity:1;fill-rule:nonzero;stroke:none"
             transform="scale(1,-1)"><tspan
               id="tspan866"
               y="0"
               x="0 6.0816002">60</tspan></text>
</g></g></g><g
       id="g868"><g
         clip-path="url(#clipPath872)"
         id="g870"><g
           transform="translate(204,566)"
           id="g876"><text
             id="text878"
             style="font-variant:normal;font-weight:normal;font-size:12px;font-family:Calibri;-inkscape-font-specification:Calibri;writing-mode:lr-tb;fill:#000000;fill-opacity:1;fill-rule:nonzero;stroke:none"
             transform="scale(1,-1)"><tspan
               id="tspan880"
               y="0"
               x="0 6.0816002">61</tspan></text>
</g></g></g><g
       id="g882"><g
         clip-path="url(#clipPath886)"
         id="g884"><g
           transform="translate(233,566)"
           id="g890"><text
             id="text892"
             style="font-variant:normal;font-weight:normal;font-size:12px;font-family:Calibri;-inkscape-font-specification:Calibri;writing-mode:lr-tb;fill:#000000;fill-opacity:1;fill-rule:nonzero;stroke:none"
             transform="scale(1,-1)"><tspan
               id="tspan894"
               y="0"
               x="0 6.0816002">62</tspan></text>
</g></g></g><g
       id="g896"><g
         clip-path="url(#clipPath900)"
         id="g898"><g
           transform="translate(262,566)"
           id="g904"><text
             id="text906"
             style="font-variant:normal;font-weight:normal;font-size:12px;font-family:Calibri;-inkscape-font-specification:Calibri;writing-mode:lr-tb;fill:#000000;fill-opacity:1;fill-rule:nonzero;stroke:none"
             transform="scale(1,-1)"><tspan
               id="tspan908"
               y="0"
               x="0 6.0816002">63</tspan></text>
</g></g></g><g
       id="g910"><g
         clip-path="url(#clipPath914)"
         id="g912"><path
           id="path918"
           style="fill:#000000;fill-opacity:1;fill-rule:nonzero;stroke:none"
           d="m 49,789 2,0 0,-234 -2,0 0,234 z" /><path
           id="path920"
           style="fill:#000000;fill-opacity:1;fill-rule:nonzero;stroke:none"
           d="m 79,787 1,0 0,-230 -1,0 0,230 z" /><path
           id="path922"
           style="fill:#000000;fill-opacity:1;fill-rule:nonzero;stroke:none"
           d="m 108,787 1,0 0,-230 -1,0 0,230 z" /><path
           id="path924"
           style="fill:#000000;fill-opacity:1;fill-rule:nonzero;stroke:none"
           d="m 137,787 1,0 0,-230 -1,0 0,230 z" /><path
           id="path926"
           style="fill:#000000;fill-opacity:1;fill-rule:nonzero;stroke:none"
           d="m 166,787 1,0 0,-230 -1,0 0,230 z" /><path
           id="path928"
           style="fill:#000000;fill-opacity:1;fill-rule:nonzero;stroke:none"
           d="m 195,787 1,0 0,-230 -1,0 0,230 z" /><path
           id="path930"
           style="fill:#000000;fill-opacity:1;fill-rule:nonzero;stroke:none"
           d="m 224,787 1,0 0,-230 -1,0 0,230 z" /><path
           id="path932"
           style="fill:#000000;fill-opacity:1;fill-rule:nonzero;stroke:none"
           d="m 253,787 1,0 0,-230 -1,0 0,230 z" /><path
           id="path934"
           style="fill:#000000;fill-opacity:1;fill-rule:nonzero;stroke:none"
           d="m 281,787 2,0 0,-232 -2,0 0,232 z" /><path
           id="path936"
           style="fill:#000000;fill-opacity:1;fill-rule:nonzero;stroke:none"
           d="m 51,789 232,0 0,-2 -232,0 0,2 z" /><path
           id="path938"
           style="fill:#000000;fill-opacity:1;fill-rule:nonzero;stroke:none"
           d="m 51,759 230,0 0,-1 -230,0 0,1 z" /><path
           id="path940"
           style="fill:#000000;fill-opacity:1;fill-rule:nonzero;stroke:none"
           d="m 51,730 230,0 0,-1 -230,0 0,1 z" /><path
           id="path942"
           style="fill:#000000;fill-opacity:1;fill-rule:nonzero;stroke:none"
           d="m 51,701 230,0 0,-1 -230,0 0,1 z" /><path
           id="path944"
           style="fill:#000000;fill-opacity:1;fill-rule:nonzero;stroke:none"
           d="m 51,672 230,0 0,-1 -230,0 0,1 z" /><path
           id="path946"
           style="fill:#000000;fill-opacity:1;fill-rule:nonzero;stroke:none"
           d="m 51,643 230,0 0,-1 -230,0 0,1 z" /><path
           id="path948"
           style="fill:#000000;fill-opacity:1;fill-rule:nonzero;stroke:none"
           d="m 51,614 230,0 0,-1 -230,0 0,1 z" /><path
           id="path950"
           style="fill:#000000;fill-opacity:1;fill-rule:nonzero;stroke:none"
           d="m 51,585 230,0 0,-1 -230,0 0,1 z" /><path
           id="path952"
           style="fill:#000000;fill-opacity:1;fill-rule:nonzero;stroke:none"
           d="m 51,557 232,0 0,-2 -232,0 0,2 z" /></g></g></g></svg>