<?xml version="1.0" encoding="utf-8"?>
<!-- Generator: Adobe Illustrator 16.0.0, SVG Export Plug-In . SVG Version: 6.00 Build 0)  -->
<!DOCTYPE svg PUBLIC "-//W3C//DTD SVG 1.1//EN" "http://www.w3.org/Graphics/SVG/1.1/DTD/svg11.dtd">
<svg version="1.1" id="Logo_1_" xmlns="http://www.w3.org/2000/svg" xmlns:xlink="http://www.w3.org/1999/xlink" x="0px" y="0px"
	 width="392px" height="230px" viewBox="26 30 392 230" enable-background="new 0 0 446.978 289.486"
	 xml:space="preserve">
<g id="_x31__2_">
	<g>
		<path fill-rule="evenodd" clip-rule="evenodd" fill="#FCAF17" d="M52.923,137.31c-5.096,0.295-7.008,5.676-7.008,5.676
			c-0.546,1.348-2.915,12.454-0.197,16.873c2.806,4.562,12.137,4.984,15.852,2.879c3.714-2.106,8.414-7.88,8.406-15.592
			C69.967,139.432,58.019,137.015,52.923,137.31z"/>
	</g>
</g>
<g id="_x33_">
	<g>
		<path fill-rule="evenodd" clip-rule="evenodd" fill="#1E478E" d="M200.915,207.694c-24.377-9.994-41.247-34.28-40.496-62.188
			c0.446-16.554,7.016-31.5,17.479-42.731c0.472-0.417,0.083-2.263-1.307-1.854c-20.596,7.236-31.006,14.273-34.956,17.371
			c-0.585,0.358-1.549,1.97-0.827,3.254c5.342,8.65,26.492,50.492-4.805,88.605c-0.958,0.977-1.467,3.616-0.342,4.93
			c6.043,7.99,13.131,15.155,21.065,21.29c1.094,0.935,2.802,0.093,3.125-0.367c5.924-8.226,19.509-19.346,41.025-26.589
			C201.39,209.349,202.23,208.254,200.915,207.694z"/>
	</g>
</g>
<g id="_x34_">
	<g>
		<path fill-rule="evenodd" clip-rule="evenodd" fill="#349E49" d="M136.792,126.388c-1.328-2.296-3.267-1.582-4.708-0.257
			c-33.031,29.836-16.35,71.422-10.105,84.066c1.188,2.804,3.342,2.759,4.74,1.416C135.465,203.32,160.91,173.601,136.792,126.388z"
			/>
	</g>
</g>
<path fill-rule="evenodd" clip-rule="evenodd" fill="#00ADD4" d="M360.342,161.616c-8.046-0.9-18.188,26.109-3.119,39.845
	c6.356,5.706,15.412,8.821,28.662,3.885c12.95-4.825,18.992-14.981,19.665-26.869c-0.325-18.563-22.269-13.528-17.267-24.709
	c5.541-8.998,13.629-1.072,19.426-3.602c13.686-5.974,11.777-36.475-1.919-40.3c-6.361-1.776-23.346,12.681-24.701,16.073
	s7.5,9.984,5.036,21.831C382.849,159.075,370.375,162.701,360.342,161.616z"/>
<path fill-rule="evenodd" clip-rule="evenodd" fill="#00ADD4" d="M355.153,121.997c-16.368-7.618-16.817-43.484,0.756-47.156
	c6.75-0.409,17.051,1.059,22.303,5.758c5.727,5.125,11.056,11.11,12.23,19.672c1.175,8.562-7.316,18.646-14.795,21.123
	C371.302,123.291,358.772,123.681,355.153,121.997z"/>
<path fill-rule="evenodd" clip-rule="evenodd" fill="#00ADD4" d="M50.397,130.901c-8.058,0.9-18.215-26.107-3.124-39.842
	c6.366-5.706,15.435-8.82,28.706-3.884c12.97,4.824,19.021,14.98,19.694,26.867c-0.326,18.562-22.303,13.527-17.292,24.708
	c5.549,8.997,15.329-2.972,20.205,6.336s5.277,35.458-2.672,37.563c-6.393,1.692-23.381-12.68-24.738-16.072
	c-1.357-3.392,7.511-9.983,5.044-21.83C72.938,133.442,60.445,129.816,50.397,130.901z"/>
<path fill-rule="evenodd" clip-rule="evenodd" fill="#00ADD4" d="M45.2,170.519c-16.392,7.617-16.842,43.48,0.757,47.152
	c6.761,0.409,17.077-1.059,22.336-5.757c5.736-5.124,11.072-11.109,12.249-19.67c1.176-8.561-7.328-18.646-14.817-21.122
	C61.374,169.224,48.825,168.833,45.2,170.519z"/>
<path fill-rule="evenodd" clip-rule="evenodd" fill="#00ADD4" d="M328.757,193.473c21.294-47.786,2.65-87.184,2.5-87.485
	c-1.459-3.422-5.174-1.261-5.174-1.261s-50.783,20.249-35.33,78.502c0.182,0.743,0.997,1.219,1.397,1.001
	c16.059-6.797,25.209,0.081,34.208,9.845C326.624,194.363,328.51,194.021,328.757,193.473z"/>
<g id="_x32__1_">
	<g>
		<path fill-rule="evenodd" clip-rule="evenodd" fill="#00ADD4" d="M227.479,212.373c-0.248-0.222-1.581-0.418-1.938-0.375
			c-42.36,4.723-61.043,27.668-57.582,32.229c0.59,2.605,39.118,22.905,81.454,11.978c0.802-0.253,1.371-1.688,1.298-2.686
			C250.084,244.917,235.699,216.867,227.479,212.373z"/>
	</g>
</g>
<path fill-rule="evenodd" clip-rule="evenodd" fill="#1E478E" d="M399.692,38.96c-8.753,0-34.957,0-43.269,0
	c-1.093,0-2.479,1.174-2.56,2.48c0,5.217,0,18.478,0,23.763c0,1.015,1.168,2.359,2.255,2.199c3.636-0.483,10.988-0.573,16.94,1.561
	c8.252,2.96,15.588,10.352,18.235,14.402c3.886,6.994,7.816,6.149,9.26,6.111c1.888,0.073,2.017-2.19,2.017-2.19s0-36.697,0-45.526
	C402.572,40.428,401.373,39.041,399.692,38.96z"/>
<path fill-rule="evenodd" clip-rule="evenodd" fill="#1E478E" d="M354.09,212.907c-0.033,7.896,0,29.668,0.011,37.748
	c0.006,1.934,1.471,2.835,2.699,2.905c8.638,0.013,35.531-0.005,43.515-0.011c1.706,0.094,2.226-1.498,2.255-2.284
	c-0.005-8.118-0.021-34.411-0.005-43.927c0.072-2.378-1.523-1.795-1.852-1.553c-5.136,3.982-19.597,17.116-44.253,5.481
	C356.103,211.038,354.175,211.431,354.09,212.907z"/>
<path fill-rule="evenodd" clip-rule="evenodd" fill="#1E478E" d="M44.136,79.614c-0.033-7.895,0-29.666,0.011-37.745
	c0.005-1.934,1.474-2.834,2.703-2.905c8.651-0.013,35.585,0.004,43.581,0.01c1.709-0.093,2.229,1.499,2.259,2.284
	c-0.005,8.118-0.021,34.409-0.005,43.924c0.072,2.377-1.525,1.795-1.855,1.553c-5.144-3.983-19.626-17.116-44.321-5.482
	C46.151,81.483,44.221,81.09,44.136,79.614z"/>
<path fill-rule="evenodd" clip-rule="evenodd" fill="#1E478E" d="M89.709,253.565c-8.756,0-34.968,0-43.282,0
	c-1.093,0-2.48-1.175-2.56-2.483c0-5.224,0-18.502,0-23.795c0-1.016,1.168-2.362,2.256-2.202c3.637,0.484,10.991,0.574,16.945-1.563
	c8.255-2.963,15.593-10.365,18.241-14.421c3.888-7.004,7.819-6.157,9.263-6.119c1.889-0.073,2.018,2.193,2.018,2.193
	s0,36.747,0,45.587C92.589,252.096,91.39,253.485,89.709,253.565z"/>
<path fill-rule="evenodd" clip-rule="evenodd" fill="#FCAF17" d="M321.113,201.588c0.113,14.522-40.421,47.052-47.943,44.98
	c-14.322-0.92-21.657-8.328-24.305-15.883c-2.648-7.554-3.351-25.089,12.346-30.279c11.657-3.854,22.549,5.337,27.384,10.324
	c0.718,0.721,1.668,0.186,1.631-0.93c-1.07-5.247-1.929-14.455,3.803-18.851C302.308,184.602,318.263,188.654,321.113,201.588z"/>
<path fill-rule="evenodd" clip-rule="evenodd" fill="#FCAF17" d="M355.866,149.531c0,0,1.91,5.382,6.998,5.677
	s17.019-2.123,17.026-9.836c0.008-7.713-4.684-13.488-8.393-15.593c-3.709-2.106-13.026-1.684-15.828,2.878
	C352.956,137.076,355.321,148.183,355.866,149.531z"/>
<path fill-rule="evenodd" clip-rule="evenodd" fill="#349E49" d="M171.688,38.49c11.733-4.629,56.623-19.084,83.905,17.884
	c2.057,2.426,0.458,4.108-1.194,4.731c-49.766,19.38-76.82-9.732-83.772-18.829C169.22,40.316,170.751,38.811,171.688,38.49z"/>
<path fill-rule="evenodd" clip-rule="evenodd" fill="#1E478E" d="M288.438,125.156c-7.446-46.598-23.306-72.532-41.427-86.132
	c-0.622-0.672-0.514-2.328,1.266-2.272c33.114,6.828,61.24,28.517,76.834,57.15c0.504,0.765-0.036,2.205-0.879,2.54
	c-9.583,4.598-24.461,13.232-33.854,29.818C289.467,127.143,288.634,126.446,288.438,125.156z"/>
<path fill-rule="evenodd" clip-rule="evenodd" fill="#1E478E" d="M273.532,102.895c-11.518-12.436-27.837-20.403-46.116-20.896
	c-6.18-0.167-12.183,0.532-17.891,1.986c-0.042-0.056-0.084-0.114-0.126-0.168c-53.828,11.819-81.275,31.758-93.923,52.898
	c-0.73,1.072-2.142,0.225-2.054-0.509c3.53-36.616,24.485-67.923,54.297-85.796c0.89-0.638,2.053-0.174,2.353,0.201
	c35.539,37.172,80.952,18.934,89.478,14.651c1.002-0.505,2.112,0.109,2.407,0.608c2.378,3.56,8.556,14.229,13.983,35.727
	C276.142,103.283,274.175,103.601,273.532,102.895z"/>
</svg>
